<svg xmlns="http://www.w3.org/2000/svg" viewBox="0 0 100 100">
  <rect width="100" height="100" rx="20" fill="#7d6ee7"/>
  <path fill="#fff" d="M36.79 65.82q0-4.79-2.59-7.34t-9.36-4.96q-6.77-2.42-10.35-5.08t-5.36-6.06q-1.78-3.41-1.78-7.8 0-7.61 5.08-12.53 5.07-4.92 13.29-4.92 5.63 0 10.02 2.53 4.39 2.52 6.77 7.01 2.37 4.48 2.37 9.84h-8.09q0-5.93-2.85-9.19-2.86-3.25-8.22-3.25-4.88 0-7.56 2.73-2.68 2.72-2.68 7.64 0 4.05 2.9 6.77 2.9 2.73 8.97 4.88 9.44 3.12 13.51 7.69 4.06 4.57 4.06 11.95 0 7.78-5.05 12.46-5.05 4.68-13.75 4.68-5.59 0-10.31-2.44-4.72-2.44-7.43-6.85-2.7-4.42-2.7-10.13h8.09q0 5.93 3.31 9.23 3.32 3.29 9.04 3.29 5.31 0 7.99-2.72 2.68-2.73 2.68-7.43ZM69.8 81.99H55.47V18.01h15.25q11.21 0 17.4 7.01 6.2 7.01 6.2 19.71v10.72q0 12.7-6.29 19.62-6.28 6.92-18.23 6.92Zm.92-57.04h-7.21v50.14h6.46q8.48 0 12.4-4.85 3.91-4.86 3.99-14.4V44.51q0-10.11-3.88-14.83-3.89-4.73-11.76-4.73Z"/>
</svg>
